<svg width="100" height="100" viewBox="0 0 100 100" fill="none" xmlns="http://www.w3.org/2000/svg">
<circle cx="50" cy="50" r="47.5" stroke="#AE7BE1" stroke-width="5"/>
<path d="M47.3316 67.32V25.8H52.7716V67.32H47.3316ZM49.9716 79.32C49.1182 79.32 48.3716 79 47.7316 78.36C47.1449 77.72 46.8516 76.9733 46.8516 76.12C46.8516 75.2667 47.1449 74.52 47.7316 73.88C48.3716 73.24 49.1182 72.92 49.9716 72.92C50.8782 72.92 51.6249 73.24 52.2116 73.88C52.8516 74.4667 53.1716 75.2133 53.1716 76.12C53.1716 76.9733 52.8516 77.72 52.2116 78.36C51.6249 79 50.8782 79.32 49.9716 79.32Z" fill="#AE7BE1"/>
</svg>
