<svg width="43" height="44" viewBox="0 0 43 44" fill="none" xmlns="http://www.w3.org/2000/svg">
<path d="M5.48145 11.2804H9.05466H37.6404" stroke="#AE7BE1" stroke-width="1.47857" stroke-linecap="round" stroke-linejoin="round"/>
<path d="M34.0672 11.2804V36.2929C34.0672 37.2406 33.6907 38.1494 33.0206 38.8195C32.3505 39.4897 31.4416 39.8661 30.494 39.8661H12.6279C11.6802 39.8661 10.7714 39.4897 10.1013 38.8195C9.43115 38.1494 9.05469 37.2406 9.05469 36.2929V11.2804M14.4145 11.2804V7.70719C14.4145 6.75951 14.791 5.85065 15.4611 5.18054C16.1312 4.51043 17.04 4.13397 17.9877 4.13397H25.1342C26.0818 4.13397 26.9907 4.51043 27.6608 5.18054C28.3309 5.85065 28.7074 6.75951 28.7074 7.70719V11.2804" stroke="#AE7BE1" stroke-width="1.47857" stroke-linecap="round" stroke-linejoin="round"/>
<path d="M17.9875 20.2134V30.9331" stroke="#AE7BE1" stroke-width="1.47857" stroke-linecap="round" stroke-linejoin="round"/>
<path d="M25.1343 20.2134V30.9331" stroke="#AE7BE1" stroke-width="1.47857" stroke-linecap="round" stroke-linejoin="round"/>
</svg>
